<?xml version="1.0" encoding="UTF-8"?> <svg xmlns="http://www.w3.org/2000/svg" width="50" height="50" viewBox="0 0 50 50" fill="none"> <path d="M46.4793 22.2576C43.7194 21.7605 41.1029 20.1381 40.1061 19.4637C39.1307 18.8037 37.9955 18.4551 36.8228 18.4551C35.6506 18.4551 34.5153 18.8037 33.5399 19.4637C32.5431 20.1381 29.9262 21.7605 27.1663 22.2576C25.1266 22.6253 23.6461 24.3965 23.6461 26.4698V33.4876C23.6461 43.8628 35.5205 49.293 36.0259 49.5192L36.8228 49.8755L37.6201 49.5192C38.1255 49.293 49.9999 43.8628 49.9999 33.4876V26.4698C49.9999 24.3965 48.5194 22.6253 46.4793 22.2576V22.2576ZM46.0956 33.4876C46.0956 40.0031 39.1986 44.2741 36.8201 45.5527C34.4363 44.2786 27.5501 40.0306 27.5501 33.4876V26.4698C27.5501 26.2878 27.6798 26.1325 27.8583 26.1001C31.2259 25.4936 34.2342 23.7079 35.7276 22.6978C36.0545 22.4762 36.4333 22.3594 36.8228 22.3594C37.2123 22.3594 37.5911 22.4765 37.9184 22.6978C39.4118 23.7079 42.4197 25.4936 45.7873 26.1001C45.9659 26.1325 46.0956 26.2878 46.0956 26.4698V33.4876ZM27.396 48.5171C28.0197 49.0523 28.6418 49.5406 29.2438 49.9824H10.7616C7.53249 49.9824 4.90531 47.3548 4.90531 44.1257V23.6282L2.63137 25.7026L0 22.8183L25.0122 0L40.9621 14.5508H35.1692L25.0122 5.28487L8.80964 20.0668V44.1257C8.80964 45.2022 9.68512 46.078 10.7616 46.078H24.8935C25.6484 46.9184 26.4823 47.7328 27.396 48.5171Z" fill="white"></path> </svg> 