<?xml version="1.0" encoding="UTF-8"?> <svg xmlns="http://www.w3.org/2000/svg" width="50" height="50" viewBox="0 0 50 50" fill="none"> <path d="M49.9934 16.735V49.9999H46.0876V18.8205L24.9965 4.70008L3.90586 18.8205V49.9999H0V16.735L24.9965 0L49.9934 16.735ZM42.1817 35.3534V46.094C42.1817 48.2478 40.4296 49.9999 38.2762 49.9999C36.1224 49.9999 34.3704 48.2478 34.3704 46.094H15.6231C15.6231 48.2478 13.871 49.9999 11.7172 49.9999C9.56343 49.9999 7.81134 48.2478 7.81134 46.094V35.3534C7.81134 32.97 9.24299 30.9158 11.2907 30.0018L13.4727 23.2482C14.1071 21.4294 15.8279 20.2072 17.7543 20.2072H32.2223C34.1487 20.2072 35.8691 21.4294 36.5039 23.2482L36.518 23.291L38.6848 29.9938C40.742 30.9036 42.1817 32.9631 42.1817 35.3534ZM17.1657 24.5204L15.559 29.4948H34.4188L32.8109 24.5208C32.7194 24.2763 32.4844 24.113 32.2223 24.113H17.7543C17.4923 24.113 17.2577 24.2763 17.1657 24.5204ZM38.2762 35.3534C38.2762 34.2765 37.4 33.4007 36.3231 33.4007H13.6699C12.5934 33.4007 11.7172 34.2765 11.7172 35.3534V40.2354C11.7172 41.3123 12.5934 42.1886 13.6699 42.1886H36.3231C37.4 42.1886 38.2762 41.3123 38.2762 40.2354V35.3534ZM20.6028 39.7475H29.4883V35.8417H20.6028V39.7475ZM33.8821 35.8417C32.8037 35.8417 31.9293 36.716 31.9293 37.7944C31.9293 38.8732 32.8037 39.7475 33.8821 39.7475C34.9609 39.7475 35.8352 38.8732 35.8352 37.7944C35.8352 36.716 34.9609 35.8417 33.8821 35.8417ZM16.2086 35.8417C15.1302 35.8417 14.2559 36.716 14.2559 37.7944C14.2559 38.8732 15.1302 39.7475 16.2086 39.7475C17.2874 39.7475 18.1617 38.8732 18.1617 37.7944C18.1617 36.716 17.2874 35.8417 16.2086 35.8417Z" fill="white"></path> </svg> 