<?xml version="1.0" encoding="UTF-8"?> <svg xmlns="http://www.w3.org/2000/svg" width="50" height="50" viewBox="0 0 50 50" fill="none"> <g clip-path="url(#clip0)"> <path d="M43.2533 36.4792L40.4938 39.2391L42.6266 41.3719H33.3149L46.0693 28.6175V33.7753L49.9722 37.6781V5.45769C49.9722 2.44827 47.5239 0 44.5148 0H12.1964L16.0995 3.90282H21.4527L8.60062 16.7553V7.44362L10.7334 9.57642L13.493 6.81648L6.74667 0.069809L0 6.81648L2.75993 9.57642L4.69742 7.63855V39.8174C4.69742 42.8268 7.14569 45.2751 10.1551 45.2751H42.4313L40.4938 47.2126L43.2533 49.9725L50 43.2259L43.2533 36.4792ZM27.795 41.3719H22.3373L46.0693 17.6403V23.0976L27.795 41.3719ZM8.60062 33.1059L37.8033 3.9032H43.3094L8.60062 38.612V33.1059ZM46.0693 6.66313V12.1204L16.8179 41.3719H11.3602L46.0693 6.66313ZM26.9722 3.9032H32.2834L8.60062 27.586V22.2748L26.9722 3.9032Z" fill="white"></path> </g> <defs> <clipPath id="clip0"> <rect width="50" height="50" fill="white"></rect> </clipPath> </defs> </svg> 