<?xml version="1.0" encoding="UTF-8"?> <!-- Generator: Adobe Illustrator 22.0.1, SVG Export Plug-In . SVG Version: 6.00 Build 0) --> <svg xmlns="http://www.w3.org/2000/svg" xmlns:xlink="http://www.w3.org/1999/xlink" id="Capa_1" x="0px" y="0px" width="512px" height="512px" viewBox="0 0 512 512" xml:space="preserve"> <path fill="#FFFFFF" d="M505,289.738c0-69.702-25.113-117.326-41.731-148.839c-4.463-8.463-8.325-15.788-10.934-22.116 C445.819,105.957,432.861,98,418.459,98H75c-37.495,0-68,30.505-68,68v180c0,20.953,17.047,38,38,38h27.104l2.023,3.488 C83.612,403.841,101.189,414,120,414s36.388-10.159,45.873-26.512l2.023-3.488h176.208l2.023,3.488 C355.611,403.841,373.189,414,392,414s36.389-10.159,45.872-26.512l2.023-3.488H467c20.953,0,38-17.047,38-38V289.738z M463.966,178.017c9.194,19.521,15.972,40.261,20.145,61.642l1.628,8.341H385v-74h77.073L463.966,178.017z M120,398 c-20.402,0-37-16.599-37-37s16.598-37,37-37s37,16.599,37,37S140.402,398,120,398z M392,398c-20.401,0-37-16.599-37-37 s16.599-37,37-37s37,16.599,37,37S412.401,398,392,398z M489,308h-22c-4.411,0-8,3.589-8,8s3.589,8,8,8h22v22 c0,12.131-9.869,22-22,22h-22v-7c0-29.225-23.775-53-53-53s-53,23.775-53,53v7H173v-7c0-29.225-23.776-53-53-53s-53,23.775-53,53v7 H45c-12.131,0-22-9.869-22-22v-22h22c4.411,0,8-3.589,8-8s-3.589-8-8-8H23V166c0-28.673,23.327-52,52-52h343.459 c8.387,0,15.928,4.66,19.678,12.162L454.057,158H377c-4.411,0-8,3.589-8,8v90c0,4.411,3.589,8,8,8h110.772l0.482,6.479 c0.494,6.633,0.745,13.112,0.745,19.259V308z"></path> <path fill="#FFFFFF" d="M225,264h92c4.411,0,8-3.589,8-8v-90c0-4.411-3.589-8-8-8h-92c-4.411,0-8,3.589-8,8v90 C217,260.411,220.589,264,225,264z M233,174h76v74h-76V174z"></path> <path fill="#FFFFFF" d="M75,264h90c4.411,0,8-3.589,8-8v-90c0-4.411-3.589-8-8-8H75c-4.411,0-8,3.589-8,8v90 C67,260.411,70.589,264,75,264z M83,174h74v74H83V174z"></path> </svg> 