<?xml version="1.0" encoding="UTF-8"?> <svg xmlns="http://www.w3.org/2000/svg" width="50" height="50" viewBox="0 0 50 50" fill="none"> <path d="M39.1667 28.1088C36.8692 28.1088 35 29.978 35 32.2755C35 34.573 36.8691 36.4422 39.1667 36.4422C41.4642 36.4422 43.3334 34.5731 43.3334 32.2755C43.3333 29.9781 41.4642 28.1088 39.1667 28.1088ZM39.1667 34.7755C37.7884 34.7755 36.6667 33.6538 36.6667 32.2755C36.6667 30.8972 37.7884 29.7755 39.1667 29.7755C40.545 29.7755 41.6667 30.8972 41.6667 32.2755C41.6667 33.6538 40.545 34.7755 39.1667 34.7755Z" fill="white"></path> <path d="M10.8333 28.1088C8.53586 28.1088 6.66663 29.978 6.66663 32.2755C6.66663 34.573 8.53577 36.4422 10.8333 36.4422C13.1308 36.4422 15 34.5731 15 32.2755C15 29.9781 13.1309 28.1088 10.8333 28.1088ZM10.8333 34.7755C9.455 34.7755 8.33332 33.6538 8.33332 32.2755C8.33332 30.8972 9.455 29.7755 10.8333 29.7755C12.2116 29.7755 13.3333 30.8972 13.3333 32.2755C13.3333 33.6538 12.2116 34.7755 10.8333 34.7755Z" fill="white"></path> <path d="M49.1667 28.1088V23.1088C49.1667 22.7496 48.9375 22.4313 48.5967 22.318L43.8941 20.7505C42.1233 17.7514 39.6892 14.8972 34.31 13.9547C34.3 13.953 34.2899 13.9514 34.28 13.9497C24.3467 12.5764 16.8883 14.8172 12.1 20.6122C6.56416 20.6922 0.833301 22.438 0.833301 25.6088V28.1088C0.37334 28.1088 0 28.4821 0 28.9421V32.2754C0 32.7354 0.37334 33.1087 0.833301 33.1087H4.1666C4.62656 33.1087 4.9999 32.7354 4.9999 32.2754C4.9999 29.0587 7.6166 26.4421 10.8332 26.4421C14.0498 26.4421 16.6665 29.0588 16.6665 32.2754C16.6665 32.7354 17.0398 33.1087 17.4998 33.1087H32.4998C32.9598 33.1087 33.3331 32.7354 33.3331 32.2754C33.3331 29.0587 35.9498 26.4421 39.1664 26.4421C42.3831 26.4421 44.9997 29.0588 44.9997 32.2754C44.9997 32.7354 45.373 33.1087 45.833 33.1087H49.1663C49.6263 33.1087 49.9996 32.7354 49.9996 32.2754V28.9421C50 28.4821 49.6267 28.1088 49.1667 28.1088ZM38.3741 17.1555C39.8216 18.043 40.9 19.2147 41.8357 20.6088H38.3416L38.3741 17.1555ZM28.3333 15.2246C30.1158 15.2005 32.0116 15.3196 34.0375 15.5996C35.0408 15.7763 35.9225 16.0272 36.7158 16.3388L36.675 20.6096H28.3333V15.2246ZM26.6667 15.2955V20.6097H14.3517C17.4408 17.423 21.5142 15.6621 26.6667 15.2955ZM48.3333 31.4422H46.6208C46.205 27.6972 43.0208 24.7755 39.1666 24.7755C35.3124 24.7755 32.1282 27.6972 31.7124 31.4422H18.2875C17.8717 27.6972 14.6875 24.7755 10.8333 24.7755C6.9791 24.7755 3.79492 27.6972 3.3791 31.4422H1.6667V29.7755C2.12666 29.7755 2.5 29.4022 2.5 28.9422V26.4422H3.3333C3.79326 26.4422 4.1666 26.0689 4.1666 25.6089C4.1666 25.1489 3.79326 24.7756 3.3333 24.7756H2.90166C4.0292 23.5515 7.47832 22.2756 12.5 22.2756H43.1975L47.5 23.7098V24.7756H46.6667C46.2067 24.7756 45.8334 25.1489 45.8334 25.6089C45.8334 26.0689 46.2067 26.4422 46.6667 26.4422H47.5V28.9422C47.5 29.4022 47.8733 29.7755 48.3333 29.7755V31.4422Z" fill="white"></path> </svg> 