<?xml version="1.0" encoding="UTF-8"?> <svg xmlns="http://www.w3.org/2000/svg" width="50" height="50" viewBox="0 0 50 50" fill="none"> <g clip-path="url(#clip0)"> <path d="M47.8166 3.25445C45.5603 2.03954 43.0437 4.38257 41.5685 5.77104C38.1843 9.06864 35.3206 12.8869 32.1096 16.3581C28.5517 20.1763 25.2541 23.9946 21.6093 27.7263C19.5266 29.809 17.2704 32.0652 15.8819 34.6686C12.7579 31.6312 10.0677 28.3336 6.59659 25.6436C4.08 23.7344 -0.0853833 22.346 0.00139562 26.9452C0.174953 32.9331 5.46847 39.3548 9.37352 43.4333C11.0223 45.1688 13.1918 46.9912 15.7084 47.078C18.7456 47.2515 21.8697 43.6068 23.692 41.6109C26.903 38.1397 29.5064 34.2345 32.4567 30.6767C36.275 25.9907 40.18 21.3913 43.9115 16.6184C46.2546 13.6679 53.6308 6.37835 47.8166 3.25445Z" fill="#262626"></path> </g> <defs> <clipPath id="clip0"> <rect width="50" height="50" fill="white"></rect> </clipPath> </defs> </svg> 