<?xml version="1.0" encoding="UTF-8"?> <svg xmlns="http://www.w3.org/2000/svg" width="50" height="50" viewBox="0 0 50 50" fill="none"> <g clip-path="url(#clip0)"> <path d="M41.2854 49.5709L32.7387 41.0256L28.5959 45.1684C28.2383 45.526 27.7191 45.6734 27.2241 45.5589C26.7292 45.4417 26.3314 45.0783 26.1712 44.5963L17.8843 19.7368C17.7084 19.2103 17.8457 18.6296 18.2376 18.2376C18.6282 17.847 19.2104 17.704 19.7369 17.8842L44.5963 26.1712C45.0785 26.3314 45.4417 26.7291 45.559 27.224C45.675 27.7175 45.5276 28.2368 45.1685 28.5959L41.0257 32.7386L49.5709 41.2852C50.1431 41.8574 50.1431 42.7844 49.5709 43.3566L43.3568 49.5708C42.7845 50.1431 41.8576 50.1431 41.2854 49.5709Z" fill="white"></path> <path d="M19.043 11.7188C18.2333 11.7188 17.5781 11.0636 17.5781 10.2539V1.46484C17.5781 0.655176 18.2333 0 19.043 0C19.8526 0 20.5078 0.655176 20.5078 1.46484V10.2539C20.5078 11.0636 19.8526 11.7188 19.043 11.7188Z" fill="white"></path> <path d="M11.7932 13.8646L5.57756 7.64895C5.0054 7.07678 5.0054 6.14973 5.57756 5.57756C6.14973 5.0054 7.07678 5.0054 7.64895 5.57756L13.8645 11.7931C14.4366 12.3653 14.4366 13.2923 13.8645 13.8645C13.2923 14.4367 12.3654 14.4367 11.7932 13.8646Z" fill="white"></path> <path d="M5.57756 32.5084C5.0054 31.9362 5.0054 31.0092 5.57756 30.437L11.7931 24.2215C12.3653 23.6493 13.2923 23.6493 13.8645 24.2215C14.4366 24.7937 14.4366 25.7207 13.8645 26.2929L7.64895 32.5084C7.07678 33.0806 6.14983 33.0806 5.57756 32.5084Z" fill="white"></path> <path d="M24.2215 13.8646C23.6493 13.2924 23.6493 12.3654 24.2215 11.7932L30.437 5.57769C31.0092 5.00552 31.9362 5.00552 32.5084 5.57769C33.0806 6.14985 33.0806 7.0769 32.5084 7.64907L26.2929 13.8646C25.7207 14.4368 24.7938 14.4368 24.2215 13.8646Z" fill="white"></path> <path d="M10.2539 20.5078H1.46484C0.655176 20.5078 0 19.8526 0 19.043C0 18.2333 0.655176 17.5781 1.46484 17.5781H10.2539C11.0636 17.5781 11.7188 18.2333 11.7188 19.043C11.7188 19.8526 11.0636 20.5078 10.2539 20.5078Z" fill="white"></path> </g> <defs> <clipPath id="clip0"> <rect width="50" height="50" fill="white"></rect> </clipPath> </defs> </svg> 