<?xml version="1.0" encoding="UTF-8"?> <svg xmlns="http://www.w3.org/2000/svg" width="50" height="50" viewBox="0 0 50 50" fill="none"> <path fill-rule="evenodd" clip-rule="evenodd" d="M24.9829 11.6028C25.7924 11.6028 26.4482 10.9467 26.4482 10.1376V5.7621C26.4482 4.953 25.7924 4.29688 24.9829 4.29688C24.1738 4.29688 23.5181 4.953 23.5181 5.7621V10.1376C23.5181 10.9467 24.1738 11.6028 24.9829 11.6028ZM46.3693 18.8779C46.0817 19.175 45.6991 19.3242 45.3161 19.3242C44.9491 19.3242 44.5821 19.1872 44.2975 18.9122C43.7162 18.3495 43.7005 17.4222 44.2632 16.8404L47.3798 13.6193C47.9425 13.0376 48.8702 13.0219 49.4516 13.585C50.0333 14.1476 50.0486 15.075 49.4859 15.6564L46.3693 18.8779ZM3.58166 18.8843C3.86814 19.1711 4.24351 19.3146 4.61887 19.3146C4.99348 19.3146 5.3677 19.1719 5.6538 18.8866C6.22639 18.3151 6.22753 17.3874 5.65609 16.8144L2.52956 13.681C1.95812 13.1084 1.03039 13.1069 0.457799 13.6787C-0.114788 14.2502 -0.115932 15.1779 0.45551 15.7509L3.58166 18.8843ZM24.9829 32.5897C25.7924 32.5897 26.4482 31.9335 26.4482 31.1244V29.3296C26.4482 28.5205 25.7924 27.8648 24.9829 27.8648C24.1738 27.8648 23.5181 28.5205 23.5181 29.3296V31.1244C23.5181 31.9335 24.1738 32.5897 24.9829 32.5897ZM49.6992 29.4735C50.0593 29.9461 50.1012 30.6045 49.7972 31.1157C49.7705 31.1607 49.7419 31.2053 49.7106 31.2473C49.5988 31.3965 46.9209 34.9395 42.5763 38.5208C40.0079 40.6376 37.3857 42.3279 34.7829 43.5451C31.4725 45.0928 28.1812 45.8774 25.0001 45.8774C21.8187 45.8774 18.5273 45.0928 15.2169 43.5451C12.6138 42.3279 9.99194 40.6376 7.4235 38.5208C3.07894 34.9395 0.40102 31.3961 0.28925 31.2473C-0.0964166 30.7331 -0.0964166 30.0026 0.28925 29.4883C0.40102 29.3392 3.07894 25.7961 7.4235 22.2149C9.99194 20.0981 12.6138 18.4078 15.2169 17.1905C18.5273 15.6429 21.8187 14.8582 25.0001 14.8582C28.1812 14.8582 31.4725 15.6429 34.7829 17.1905C37.3857 18.4078 40.0079 20.0981 42.5763 22.2149C46.8347 25.7251 49.4897 29.1965 49.6992 29.4735ZM24.9997 17.7883C18.7406 17.7883 13.0284 21.4019 9.33886 24.4339C6.72961 26.5777 4.73109 28.7449 3.6191 30.0422C4.05627 30.2612 4.56248 30.4451 5.10912 30.513C6.2459 30.653 7.28808 30.2616 8.29325 29.3144C9.28279 28.3363 10.3067 27.4162 11.3362 26.5785C14.6226 23.9051 19.6611 20.7183 25.0001 20.7183C27.9466 20.7183 32.7092 21.735 38.6636 26.5785C39.6806 27.4059 40.6919 28.3138 41.6704 29.2781C42.1811 29.694 43.168 30.368 44.3364 30.513C45.0719 30.6038 45.7673 30.4706 46.4387 30.1101C45.3389 28.8211 43.316 26.6155 40.661 24.4339C36.9714 21.4019 31.2593 17.7883 24.9997 17.7883ZM31.5332 30.3665C31.5332 26.7532 28.6016 23.8136 24.9982 23.8136C21.3948 23.8136 18.4632 26.7532 18.4632 30.3665C18.4632 33.9801 21.3948 36.9198 24.9982 36.9198C28.6016 36.9198 31.5332 33.9801 31.5332 30.3665ZM9.33886 36.3018C13.0284 39.3333 18.7406 42.9474 25.0001 42.9474C32.842 42.9474 39.8515 37.3764 43.8543 33.4022C42.0644 33.1478 40.64 32.2307 39.7535 31.4956C39.7207 31.4682 39.689 31.4396 39.6585 31.4094C38.7323 30.4935 37.7755 29.6329 36.815 28.8517C35.7148 27.9567 34.6688 27.211 33.6789 26.588C34.1829 27.7465 34.4632 29.0241 34.4632 30.3665C34.4632 35.5957 30.2175 39.8498 24.9982 39.8498C19.7793 39.8498 15.5332 35.5957 15.5332 30.3665C15.5332 29.0264 15.8128 27.7504 16.3156 26.5937C15.1548 27.3243 14.0966 28.1101 13.1852 28.8517C12.2247 29.6329 11.268 30.4935 10.3414 31.4094C10.3367 31.4144 10.3318 31.4192 10.3268 31.4239C10.3242 31.4265 10.3215 31.429 10.3189 31.4315C9.07412 32.6099 7.6623 33.2885 6.17533 33.4377C7.08552 34.3406 8.14829 35.3237 9.33886 36.3018Z" fill="#FF3333"></path> </svg> 