<?xml version="1.0" encoding="UTF-8"?> <!-- Generator: Adobe Illustrator 22.0.1, SVG Export Plug-In . SVG Version: 6.00 Build 0) --> <svg xmlns="http://www.w3.org/2000/svg" xmlns:xlink="http://www.w3.org/1999/xlink" id="Слой_1" x="0px" y="0px" width="50px" height="50px" viewBox="0 0 50 50" xml:space="preserve"> <g> <path fill="#FFFFFF" d="M48.413,17.417c0-3.029-2.464-5.493-5.493-5.493h-2.022c3.136-2.036,5.401-4.885,6.675-8.447l-3.448-1.233 c-0.838,2.343-2.197,4.271-4.061,5.776c0.004-1.225-0.342-2.426-1.018-3.481c-1.914-2.985-5.901-3.857-8.887-1.942 c-2.154,1.382-3.964,4.235-5.184,6.598c-1.22-2.363-3.03-5.216-5.184-6.598c-2.986-1.915-6.973-1.043-8.887,1.942 c-0.672,1.047-1.017,2.239-1.018,3.454c-1.711-1.38-3.164-3.243-4.061-5.75L2.378,3.477c1.274,3.562,3.539,6.411,6.675,8.447H7.031 c-3.029,0-5.493,2.464-5.493,5.493v6.958H5.2V42.96c0,3.029,2.464,5.493,5.493,5.493h28.564c3.029,0,5.493-2.464,5.493-5.493 V24.375h3.662V17.417z M32.136,5.679c1.286-0.825,3.003-0.449,3.827,0.837c0.399,0.623,0.533,1.364,0.375,2.087 c-0.158,0.723-0.588,1.341-1.211,1.74c-0.62,0.398-1.379,0.696-2.201,0.917c-1.355,0.301-2.652,0.462-3.782,0.542 c-0.462,0.023-0.912,0.033-1.337,0.033c-0.014,0-0.029,0-0.044,0C28.834,9.608,30.489,6.736,32.136,5.679L32.136,5.679z M14.823,10.343c-0.622-0.399-1.053-1.017-1.211-1.74c-0.158-0.723-0.025-1.464,0.375-2.087c0.528-0.824,1.423-1.274,2.336-1.274 c0.512,0,1.029,0.141,1.491,0.437c1.664,1.067,3.307,3.915,4.378,6.155c-0.017,0-0.033,0-0.049,0c-0.399,0-0.819-0.009-1.251-0.029 c-1.197-0.083-2.59-0.257-4.045-0.595C16.094,10.995,15.399,10.712,14.823,10.343z M5.2,17.417c0-1.009,0.821-1.831,1.831-1.831 h16.113v5.127H5.2V17.417z M8.862,42.96V24.375h14.282v20.416H10.693C9.684,44.791,8.862,43.97,8.862,42.96L8.862,42.96z M41.089,42.96c0,1.01-0.821,1.831-1.831,1.831H26.807V24.375h14.282V42.96z M44.751,20.713H26.807v-5.127H42.92 c1.01,0,1.831,0.822,1.831,1.831V20.713z"></path> </g> </svg> 