<?xml version="1.0" encoding="UTF-8"?> <!-- Generator: Adobe Illustrator 22.0.1, SVG Export Plug-In . SVG Version: 6.00 Build 0) --> <svg xmlns="http://www.w3.org/2000/svg" xmlns:xlink="http://www.w3.org/1999/xlink" id="Capa_1" x="0px" y="0px" width="454.8px" height="420.8px" viewBox="0 0 454.8 420.8" xml:space="preserve"> <g> <path fill="#FFFFFF" d="M345.501,240.677c-26.847,32.714-66.982,66.932-116.143,99.031c-21.504-13.859-71.751-48.43-109.84-91.524 l-0.896-1.014H79.153l3.806,4.852c24.816,31.634,58.522,60.79,76.406,75.354c29.639,24.126,57.726,42.782,68.301,45.368l0.31,0.076 l0.581,0.58h1.242c0.166,0,0.331-0.005,0.497-0.013l0.27,0.065l0.021-0.086c0.786-0.065,1.566-0.229,2.323-0.482l0.07,0.152 l2.751-1.34c6.867-3.342,32.269-18.885,63.014-43.299c24.404-19.384,58.693-49.703,83.457-84.064l3.427-4.754h-39.229 L345.501,240.677z"></path> <path fill="#FFFFFF" d="M46.984,185.405l0.601,2.215H80.5l-1.326-3.954c-6.233-18.583-7.017-36.334-2.338-52.734 C84.297,105.727,109.06,78.6,145.8,78.6c9.48,0,20.046,1.98,31.338,5.863c15.824,5.86,29.953,13.055,41.981,21.374 c0.398,0.279,0.779,0.54,1.141,0.773c2.654,1.993,5.895,3.089,9.14,3.089c3.467,0,6.882-1.235,9.624-3.479 c1.772-1.354,16.403-12.184,42.664-21.763l0.168-0.067C292.001,80.548,302.479,78.6,313,78.6c36.743,0,61.51,27.137,68.971,52.343 c4.141,14.15,3.997,29.663-0.428,46.108l-1.017,3.779h31.788l0.509-2.371c5.298-24.702,2.053-44.225-1.595-56.224 C400.656,86.192,365.282,47.4,312.6,47.4c-13.86,0-27.559,2.532-41.887,7.745c-20.268,7.469-34.333,15.401-41.695,20.039 c-8.567-5.454-22.384-13.036-41.751-20.042C173.156,50.004,159.07,47.4,145.4,47.4c-52.716,0-88.085,38.809-98.645,74.887 c-3.648,12.796-4.953,26.18-3.875,39.778C43.481,169.728,44.862,177.581,46.984,185.405z"></path> <path fill="#FFFFFF" d="M346.96,195l-13.791-23.546l-0.098-0.156c-2.848-4.697-7.803-7.498-13.271-7.498 c-5.691,0-10.36,2.45-13.153,6.901l-2.945,4.333l-16.474-53.601c-1.736-5.907-7.002-10.177-13.742-11.144l-1.09-0.083l-0.21-0.007 c-6.846,0.012-13.171,4.775-15.037,11.315l-29.823,102.94l-30.683-78.372c-2.067-5.822-7.833-9.883-14.042-9.883 c-6.205,0-11.328,3.126-14.043,8.558L139.482,201.8l-87.076-0.01l0.177,0.41H23.72c-0.228,0-0.464,0.008-0.694,0.019H7.833V233 H148.2c6.017,0,11.401-3.286,14.045-8.563l17.678-34.834l34.635,88.713c2.072,5.822,8.002,9.884,14.442,9.884h0.4 c6.723,0,12.749-4.657,14.649-11.31l28.378-97.186l10.773,34.942l0.063,0.199c1.822,5.48,6.518,9.479,12.277,10.437 c0.827,0.131,1.63,0.197,2.389,0.197c4.764,0,9.32-2.28,12.503-6.257l7.999-11.655l6.027,10.227 c2.861,4.763,7.849,7.605,13.341,7.605l109.7,0.016v-30.424L346.96,195z"></path> </g> </svg> 