<?xml version="1.0" encoding="UTF-8"?> <svg xmlns="http://www.w3.org/2000/svg" width="50" height="50" viewBox="0 0 50 50" fill="none"> <path d="M44.6289 17.3473C44.6289 12.0296 40.5506 7.64694 35.3588 7.16705C33.9035 2.93159 29.9019 0 25.3017 0C19.7235 0 15.1344 4.31671 14.6957 9.78699C9.4223 10.5976 5.37109 15.168 5.37109 20.6676C5.37109 23.5451 6.46553 26.2398 8.42018 28.2749C7.82776 29.6425 7.51953 31.1794 7.51953 32.8018C7.51953 35.7265 8.63647 38.472 10.6647 40.5323C12.7071 42.6075 15.4415 43.75 18.364 43.75H23.6328V50H27.5391V35.5114L34.5573 28.4931L31.7951 25.7309L27.5391 29.987V16.4062H23.6328V24.9065L18.8934 20.1672L16.1312 22.929L23.6328 30.4306V39.8438H18.364C14.4733 39.8438 11.4258 36.7504 11.4258 32.8018C11.4258 31.2996 11.7844 29.995 12.4916 28.9246L13.4937 27.4086L12.0537 26.3C10.2894 24.942 9.27734 22.8889 9.27734 20.6676C9.27734 16.7515 12.4607 13.5654 16.3731 13.5654C16.4299 13.5654 16.486 13.5677 16.5421 13.5696L18.861 13.6448L18.6111 11.4037C18.5822 11.1443 18.5677 10.8894 18.5677 10.6464C18.5677 6.92978 21.5885 3.90625 25.3017 3.90625C28.5633 3.90625 31.3496 6.23512 31.9263 9.44366L32.2357 11.1641L33.9798 11.0466C34.1499 11.0352 34.2869 11.0298 34.4109 11.0298C37.8914 11.0298 40.7227 13.8638 40.7227 17.3473C40.7227 19.0487 40.0558 20.6444 38.8454 21.841L37.6045 23.0682L38.6848 24.4389C40.0181 26.1307 40.7227 28.1666 40.7227 30.3268C40.7227 35.6865 36.4704 39.8438 32.8125 39.8438V43.75C35.7349 43.75 38.7218 42.289 41.0076 39.7419C43.343 37.1395 44.6289 33.7955 44.6289 30.3268C44.6289 27.8282 43.9598 25.4471 42.6811 23.3543C43.9465 21.6194 44.6289 19.5374 44.6289 17.3473Z" fill="white"></path> </svg> 