<?xml version="1.0" encoding="UTF-8"?> <!-- Generator: Adobe Illustrator 22.0.1, SVG Export Plug-In . SVG Version: 6.00 Build 0) --> <svg xmlns="http://www.w3.org/2000/svg" xmlns:xlink="http://www.w3.org/1999/xlink" id="Capa_1" x="0px" y="0px" width="512.001px" height="512.001px" viewBox="0 0 512.001 512.001" xml:space="preserve"> <path fill="#FFFFFF" d="M376.001,337h-30c-5.514,0-10,4.486-10,10s4.486,10,10,10h30c5.514,0,10-4.486,10-10 S381.515,337,376.001,337z"></path> <path fill="#FFFFFF" d="M166.001,337h-30c-5.514,0-10,4.486-10,10s4.486,10,10,10h30c5.514,0,10-4.486,10-10 S171.515,337,166.001,337z"></path> <path fill="#FFFFFF" d="M45.259,506.974c2.661,0.196,5.244-0.652,7.267-2.396L84.542,477H427.46l32.016,27.577 c4.177,3.598,10.503,3.128,14.103-1.052c3.598-4.178,3.127-10.505-1.052-14.104l-84.578-72.853l8.642-2.665 c29.093-8.97,49.411-36.482,49.411-66.904V135c0-38.598-31.401-70-70-70h-23.819l-18.944-37.888C326.418,13.473,312.709,5,297.46,5 h-82.918c-15.25,0-28.959,8.472-35.777,22.111L159.82,65H136c-38.598,0-70,31.402-70,70v212c0,30.421,20.319,57.934,49.412,66.905 l8.641,2.665l-84.579,72.853c-4.177,3.599-4.649,9.926-1.051,14.104C40.167,505.552,42.595,506.775,45.259,506.974z M196.654,36.055 C200.063,29.236,206.917,25,214.542,25h82.918c7.624,0,14.479,4.236,17.888,11.056L329.822,65h-147.64L196.654,36.055z M88.869,118.329C95.96,98.334,114.901,84.9,136.001,84.9h240c21.099,0,40.04,13.434,47.132,33.429L425.5,125H86.502L88.869,118.329 z M421.326,144.95l-39.512,100.591C374.165,264.663,355.942,277,335.379,277H176.622c-20.563,0-38.772-12.304-46.39-31.346 L90.677,144.95H421.326z M86.001,347V187.785l25.638,65.239C122.321,279.728,147.833,297,176.622,297h158.757 c28.79,0,54.314-17.305,65.026-44.087l25.596-65.129V347c0,27.57-22.43,50-50,50h-80v-20c0-22.056-17.944-40-40.001-40 c-22.056,0-39.999,17.944-39.999,40v20h-80C108.431,397,86.001,374.57,86.001,347z M276.001,377v20h-40v-20 c0-11.028,8.972-20,19.999-20C267.028,357,276.001,365.972,276.001,377z M154.2,417h203.603l46.438,40h-296.48L154.2,417z"></path> </svg> 