<?xml version="1.0" encoding="UTF-8"?> <svg xmlns="http://www.w3.org/2000/svg" width="64" height="12" viewBox="0 0 64 12" fill="none"> <path d="M4.77401 6.354H1.96001V5.276H4.76001C4.65734 4.84666 4.44267 4.52 4.11601 4.296C3.79867 4.06266 3.41134 3.946 2.95401 3.946C2.35667 3.946 1.75467 4.16533 1.14801 4.604L0.490006 3.484C0.760672 3.18533 1.12001 2.95666 1.56801 2.798C2.02534 2.63 2.47801 2.546 2.92601 2.546C4.00867 2.546 4.86267 2.84466 5.48801 3.442C6.12267 4.04866 6.44001 4.85133 6.44001 5.85C6.44001 6.79266 6.13667 7.58133 5.53001 8.216C4.93267 8.84133 4.11601 9.154 3.08001 9.154C1.93201 9.154 1.05934 8.84133 0.462006 8.216L1.21801 7.152C1.67534 7.55333 2.26334 7.754 2.98201 7.754C3.46734 7.754 3.86401 7.63267 4.17201 7.39C4.48934 7.14733 4.69001 6.802 4.77401 6.354Z" fill="#262626"></path> <path d="M11.7753 2.7H13.8053L11.3833 5.696L14.0993 9H11.9993L9.50732 5.822L11.7753 2.7ZM9.45132 9H7.84132V2.7H9.45132V9Z" fill="#262626"></path> <path d="M30.31 4.31H28.238V2.7H33.978V4.31H31.92V9H30.31V4.31Z" fill="#262626"></path> <path d="M39.881 7.236L40.343 8.37C39.7176 8.89266 38.915 9.154 37.935 9.154C36.927 9.154 36.1056 8.85067 35.471 8.244C34.855 7.64667 34.547 6.84866 34.547 5.85C34.547 4.91666 34.8503 4.13266 35.457 3.498C36.0636 2.86333 36.871 2.546 37.879 2.546C38.7096 2.546 39.4143 2.82133 39.993 3.372C40.5716 3.92266 40.861 4.62266 40.861 5.472C40.861 5.84533 40.8283 6.13466 40.763 6.34H36.213C36.2783 6.79733 36.479 7.15666 36.815 7.418C37.1603 7.67933 37.5896 7.81 38.103 7.81C38.803 7.81 39.3956 7.61866 39.881 7.236ZM37.809 3.89C36.8943 3.89 36.3436 4.34733 36.157 5.262H39.251C39.2603 4.86066 39.1296 4.534 38.859 4.282C38.5976 4.02066 38.2476 3.89 37.809 3.89Z" fill="#262626"></path> <path d="M48.0657 9H46.4557V4.212H43.7677V9H42.1577V2.7H48.0657V9Z" fill="#262626"></path> <path d="M55.609 9H53.999V4.31H52.333L52.291 4.982C52.1697 6.12067 51.9923 6.98866 51.759 7.586C51.535 8.18333 51.2457 8.58933 50.891 8.804C50.5457 9.00933 50.065 9.11667 49.449 9.126L49.309 7.558C49.5143 7.56733 49.7057 7.51133 49.883 7.39C50.0883 7.24067 50.2703 6.928 50.429 6.452C50.5877 5.976 50.6903 5.37866 50.737 4.66L50.835 2.7H55.609V9Z" fill="#262626"></path> <path d="M57.9479 8.23C57.3225 7.60466 57.0099 6.81133 57.0099 5.85C57.0099 4.88866 57.3225 4.1 57.9479 3.484C58.5732 2.85866 59.4039 2.546 60.4399 2.546C61.4665 2.546 62.2925 2.85866 62.9179 3.484C63.5525 4.1 63.8699 4.88866 63.8699 5.85C63.8699 6.802 63.5525 7.59533 62.9179 8.23C62.2832 8.846 61.4572 9.154 60.4399 9.154C59.4039 9.154 58.5732 8.846 57.9479 8.23ZM59.2219 4.562C58.8952 4.898 58.7319 5.32733 58.7319 5.85C58.7319 6.37266 58.8905 6.80667 59.2079 7.152C59.5345 7.488 59.9452 7.656 60.4399 7.656C60.9439 7.656 61.3545 7.488 61.6719 7.152C61.9985 6.816 62.1619 6.382 62.1619 5.85C62.1619 5.32733 61.9985 4.898 61.6719 4.562C61.3452 4.226 60.9345 4.058 60.4399 4.058C59.9545 4.058 59.5485 4.226 59.2219 4.562Z" fill="#262626"></path> <path fill-rule="evenodd" clip-rule="evenodd" d="M20.6087 0.391312C20.6087 0.175148 20.7838 0 21 0C21.2162 0 21.3913 0.175148 21.3913 0.391312V1.17391C21.3913 1.39008 21.2162 1.56523 21 1.56523C20.7838 1.56523 20.6087 1.39008 20.6087 1.17391V0.391312ZM15.3913 5.60868H16.1739C16.3901 5.60868 16.5652 5.78383 16.5652 6C16.5652 6.21616 16.3901 6.39131 16.1739 6.39131H15.3913C15.1751 6.39131 15 6.21616 15 6C15 5.78383 15.1751 5.60868 15.3913 5.60868ZM25.8261 5.60868H26.6087C26.8247 5.60868 27 5.78383 27 6C27 6.21616 26.8247 6.39131 26.6087 6.39131H25.8261C25.6099 6.39131 25.4348 6.21616 25.4348 6C25.4348 5.78383 25.6099 5.60868 25.8261 5.60868ZM21 10.4348C20.7838 10.4348 20.6087 10.6099 20.6087 10.8261V11.6087C20.6087 11.8248 20.7838 12 21 12C21.2162 12 21.3913 11.8248 21.3913 11.6087V10.8261C21.3913 10.6099 21.2162 10.4348 21 10.4348ZM24.1432 10.6617L23.7518 9.9839C23.6439 9.79692 23.4051 9.73244 23.2174 9.84075C23.0303 9.94877 22.9661 10.1881 23.0742 10.3752L23.4655 11.053C23.5739 11.2407 23.8131 11.3043 24 11.1961C24.1871 11.0881 24.2513 10.8488 24.1432 10.6617ZM18.5345 0.947063L18.9258 1.62483C19.0339 1.81195 18.9697 2.05127 18.7826 2.1593C18.5957 2.26744 18.3565 2.2039 18.2482 2.01614L17.8569 1.33838C17.7487 1.15125 17.8129 0.91193 18 0.803907C18.1876 0.69586 18.4266 0.759938 18.5345 0.947063ZM26.0529 8.46554L25.3752 8.07422C25.188 7.96605 24.9487 8.03027 24.8407 8.21738C24.7325 8.4045 24.7968 8.64385 24.9839 8.75185L25.6616 9.14316C25.8487 9.25142 26.0879 9.18718 26.1961 9.00001C26.3043 8.81288 26.2401 8.57354 26.0529 8.46554ZM16.3384 2.85682L17.0162 3.24813C17.2033 3.35613 17.2675 3.59548 17.1593 3.78263C17.0512 3.9698 16.812 4.03404 16.6248 3.92578L15.9471 3.53445C15.76 3.42645 15.6958 3.1871 15.8039 2.99998C15.9121 2.81313 16.1512 2.74866 16.3384 2.85682ZM26.1961 3C26.0882 2.81276 25.8491 2.74868 25.6616 2.85685L24.9839 3.24816C24.7967 3.35618 24.7325 3.5955 24.8407 3.78263C24.949 3.97039 25.1883 4.03393 25.3752 3.92579L26.0529 3.53447C26.2401 3.42645 26.3043 3.18713 26.1961 3ZM16.6248 8.07424C16.8122 7.96608 17.0514 8.03027 17.1593 8.2174C17.2674 8.40452 17.2032 8.64384 17.0161 8.75187L16.3384 9.14318C16.1515 9.25132 15.9122 9.18778 15.8039 9.00002C15.6957 8.8129 15.7599 8.57355 15.947 8.46555L16.6248 8.07424ZM24 0.803914C23.813 0.695891 23.5737 0.760227 23.4655 0.947071L23.0742 1.62484C22.9661 1.81196 23.0303 2.0513 23.2174 2.1593C23.4045 2.26756 23.6437 2.20332 23.7518 2.01615L24.1432 1.33838C24.2513 1.15126 24.1871 0.911914 24 0.803914ZM18.2481 9.98386C18.3561 9.79687 18.5956 9.73244 18.7826 9.8407C18.9697 9.9487 19.0339 10.188 18.9258 10.3752L18.5344 11.0529C18.4263 11.2401 18.1871 11.3044 18 11.1961C17.8129 11.0881 17.7487 10.8488 17.8568 10.6616L18.2481 9.98386Z" fill="#262626"></path> <path d="M18.442 8.35369C17.8167 7.72836 17.504 6.93503 17.504 5.97369C17.504 5.01236 17.8167 4.22369 18.442 3.60769C19.0673 2.98236 19.898 2.66969 20.934 2.66969C21.9607 2.66969 22.7867 2.98236 23.412 3.60769C24.0467 4.22369 24.364 5.01236 24.364 5.97369C24.364 6.92569 24.0467 7.71903 23.412 8.35369C22.7773 8.96969 21.9513 9.27769 20.934 9.27769C19.898 9.27769 19.0673 8.96969 18.442 8.35369ZM19.716 4.68569C19.3893 5.02169 19.226 5.45103 19.226 5.97369C19.226 6.49636 19.3847 6.93036 19.702 7.27569C20.0287 7.61169 20.4393 7.77969 20.934 7.77969C21.438 7.77969 21.8487 7.61169 22.166 7.27569C22.4927 6.93969 22.656 6.50569 22.656 5.97369C22.656 5.45103 22.4927 5.02169 22.166 4.68569C21.8393 4.34969 21.4287 4.18169 20.934 4.18169C20.4487 4.18169 20.0427 4.34969 19.716 4.68569Z" fill="#262626"></path> </svg> 